<svg version="1.1" id="Layer_1" xmlns="http://www.w3.org/2000/svg" xmlns:xlink="http://www.w3.org/1999/xlink" x="0px" y="0px"
	 width="100%" viewBox="0 0 832 592" enable-background="new 0 0 832 592" xml:space="preserve">
<path fill="#000000" opacity="1.000000" stroke="none" 
	d="
M430.000336,42.682701 
	C436.563232,44.065376 441.851624,47.267921 447.188568,50.352371 
	C506.900360,84.862495 566.593933,119.404129 626.328369,153.875031 
	C641.214539,162.465424 648.506226,174.931366 648.445801,192.376373 
	C648.200012,263.370056 648.265564,334.365173 648.365234,405.359528 
	C648.387451,421.184113 641.576355,433.140625 628.270447,440.954590 
	C594.948303,460.523193 561.348999,479.619568 527.890686,498.956970 
	C500.203369,514.958984 472.490356,530.918396 444.920929,547.121643 
	C428.707977,556.650452 413.042786,556.694580 396.900360,546.726196 
	C378.192688,535.173645 359.057434,524.314819 340.175079,513.042114 
	C337.303436,511.327728 332.794983,510.196136 333.301666,506.021423 
	C333.763428,502.217316 338.207123,502.043579 341.218903,501.005219 
	C348.496033,498.496368 355.494904,495.420990 362.060638,491.422607 
	C365.721008,489.193573 368.998260,489.182831 372.764038,491.466980 
	C387.008362,500.107025 401.469513,508.390778 415.675812,517.091492 
	C419.640472,519.519714 422.741302,519.326965 426.661469,517.046082 
	C476.193970,488.226562 525.803650,459.539520 575.399902,430.829681 
	C586.354980,424.488098 597.283325,418.097412 608.331177,411.920898 
	C612.144409,409.789001 613.698425,406.864532 613.695679,402.600983 
	C613.650940,333.106537 613.643677,263.612061 613.701782,194.117645 
	C613.705994,189.090576 611.808533,185.890854 607.320679,183.312668 
	C553.442810,152.360916 499.665985,121.233292 445.856049,90.163216 
	C439.652954,86.581512 433.290070,83.260338 427.225525,79.460411 
	C423.025421,76.828712 419.396790,76.968361 415.164764,79.434105 
	C390.985931,93.521622 366.693726,107.414413 342.464172,121.415115 
	C306.695404,142.083572 270.996277,162.873489 235.128555,183.368546 
	C230.533020,185.994461 228.975250,189.126709 228.985184,194.167816 
	C229.102310,253.662674 229.074280,313.157837 229.086548,372.652893 
	C229.088669,382.985138 229.181458,393.318268 229.065292,403.649109 
	C229.022980,407.412170 230.496475,409.869232 233.749191,411.730713 
	C250.230713,421.162811 266.614410,430.765900 283.098541,440.193390 
	C288.973785,443.553558 295.422363,445.563934 302.195312,445.249695 
	C317.531830,444.538147 326.609131,434.868591 326.657898,419.368988 
	C326.747559,390.871460 326.690765,362.373505 326.690765,333.875702 
	C326.690735,293.378815 326.683777,252.881912 326.686951,212.385010 
	C326.687622,203.659805 327.311676,203.228027 335.853241,202.441238 
	C342.531403,201.826065 349.168518,202.486176 355.823730,202.391830 
	C360.422577,202.326645 362.379059,205.077728 362.390228,209.418015 
	C362.410828,217.417114 362.373291,225.416336 362.372894,233.415512 
	C362.369537,296.743958 362.366089,360.072388 362.370575,423.400818 
	C362.371552,437.039703 359.618530,449.948364 351.433990,461.128876 
	C341.004364,475.376251 325.982422,479.912048 309.129761,481.039032 
	C290.594177,482.278595 274.464966,475.541107 258.876862,466.946411 
	C243.707306,458.582458 228.738968,449.843079 213.837173,441.007324 
	C201.160522,433.490967 193.867477,422.186279 193.825287,407.390686 
	C193.618103,334.730347 193.610962,262.068634 193.840805,189.408386 
	C193.890564,173.678146 201.617493,161.963333 215.333298,154.076233 
	C262.267090,127.087593 309.146179,100.003838 356.034546,72.936256 
	C370.317078,64.691261 384.570770,56.396107 398.821381,48.095970 
	C408.414185,42.508743 418.618622,40.452789 430.000336,42.682701 
z"/>
<path fill="#000000" opacity="1.000000" stroke="none" 
	d="
M550.765991,411.893402 
	C532.550537,419.745880 513.694458,422.670807 494.429718,423.213745 
	C470.672363,423.883270 447.110413,422.335571 424.464050,414.355316 
	C407.543030,408.392609 393.159637,398.854492 383.625122,383.131104 
	C376.689697,371.693909 374.111755,359.054413 373.858459,345.887543 
	C373.758118,340.671112 376.243073,338.042023 381.424255,337.885498 
	C390.079712,337.623993 398.749115,337.741638 407.411407,337.826416 
	C411.719177,337.868561 414.102295,340.416107 414.960327,344.468414 
	C415.337982,346.252014 415.388336,348.104767 415.763885,349.888977 
	C419.233917,366.375397 429.109711,376.852570 445.557434,380.548920 
	C472.766296,386.663605 500.034729,387.096832 527.094299,379.714539 
	C537.079102,376.990509 544.652161,371.051941 547.771545,360.591125 
	C551.705261,347.399384 547.549683,338.372314 534.806580,333.306610 
	C519.330078,327.154388 502.904449,325.313538 486.552734,323.310822 
	C463.616455,320.501648 440.487030,318.964813 418.543121,310.644257 
	C395.694336,301.980499 382.548615,286.075867 381.107605,261.394989 
	C379.717834,237.591812 388.414368,218.442505 408.446777,204.942703 
	C423.069672,195.088379 439.701233,190.906097 456.869080,189.048645 
	C480.709412,186.469299 504.411224,187.631317 527.750549,193.732178 
	C561.354431,202.516159 581.420349,226.537140 583.942627,261.172943 
	C584.337036,266.589172 581.664001,269.877991 576.192139,269.982605 
	C567.699158,270.144989 559.199097,270.000214 550.702942,269.909760 
	C546.482788,269.864838 543.721130,267.680054 542.862610,263.571716 
	C538.035339,240.471680 522.903503,229.758041 500.303406,227.655716 
	C483.149567,226.060028 466.060638,225.475769 449.108673,229.327774 
	C444.052094,230.476776 439.196289,232.219925 434.760223,234.977982 
	C426.278381,240.251434 421.956970,252.259827 425.038025,261.736145 
	C426.435577,266.034637 429.532562,268.635925 433.400177,270.505920 
	C443.607330,275.441010 454.755981,276.795258 465.714813,278.724487 
	C489.948700,282.990631 514.571045,284.889618 538.559082,290.688965 
	C548.324646,293.049896 557.754761,296.332520 566.511841,301.244354 
	C581.513000,309.658447 589.881592,322.526276 591.714172,339.684875 
	C594.062012,361.667664 589.721436,381.513763 573.208862,397.358551 
	C566.794434,403.513519 559.246826,408.124023 550.765991,411.893402 
z"/>
</svg>